<svg width="58" height="70" viewBox="0 0 58 70" fill="none" xmlns="http://www.w3.org/2000/svg">
<path fill-rule="evenodd" clip-rule="evenodd" d="M29.3927 65.9089C32.8521 64.2578 58 51.4796 58 28.9153C58 12.9458 45.0163 0 29 0C12.9837 0 0 12.9458 0 28.9153C0 51.4796 25.1479 64.2578 28.6073 65.9089C28.8637 66.0312 29.1363 66.0312 29.3927 65.9089ZM28.9999 41.308C35.864 41.308 41.4284 35.7598 41.4284 28.9157C41.4284 22.0716 35.864 16.5234 28.9999 16.5234C22.1357 16.5234 16.5713 22.0716 16.5713 28.9157C16.5713 35.7598 22.1357 41.308 28.9999 41.308Z" fill="#AE8646"/>
<circle cx="29" cy="29" r="23" fill="#333333"/>
<g clip-path="url(#clip0_5244_22132)">
<path fill-rule="evenodd" clip-rule="evenodd" d="M24.6314 30.5254C25.2462 31.105 25.9841 31.7467 26.6023 32.3262C23.2886 34.3341 22.3015 38.712 20.899 42.9382C20.5965 42.9899 20.2409 42.952 19.9385 43.0037C21.248 38.7534 22.7436 34.5721 24.6314 30.5254Z" fill="#B7926A"/>
<path fill-rule="evenodd" clip-rule="evenodd" d="M24.6314 30.5254C25.2462 31.105 25.9841 31.7467 26.6023 32.3262C23.2886 34.3341 22.3015 38.712 20.899 42.9382C20.5965 42.9899 20.2409 42.952 19.9385 43.0037C21.248 38.7534 22.7436 34.5721 24.6314 30.5254Z" fill="url(#paint0_linear_5244_22132)"/>
<path fill-rule="evenodd" clip-rule="evenodd" d="M16 26.9648C21.5936 31.0461 21.5271 36.4901 21.5171 36.4694C20.6563 34.2338 17.3959 28.9658 16 26.9648Z" fill="#B7926A"/>
<path fill-rule="evenodd" clip-rule="evenodd" d="M16 26.9648C21.5936 31.0461 21.5271 36.4901 21.5171 36.4694C20.6563 34.2338 17.3959 28.9658 16 26.9648Z" fill="url(#paint1_linear_5244_22132)"/>
<path fill-rule="evenodd" clip-rule="evenodd" d="M16.8506 28.4307C18.1268 33.5469 21.5269 36.5345 21.5169 36.5207C20.6395 34.8303 17.5851 30.0004 16.8506 28.4307Z" fill="#B7926A"/>
<path fill-rule="evenodd" clip-rule="evenodd" d="M16.8506 28.4307C18.1268 33.5469 21.5269 36.5345 21.5169 36.5207C20.6395 34.8303 17.5851 30.0004 16.8506 28.4307Z" fill="url(#paint2_linear_5244_22132)"/>
<path fill-rule="evenodd" clip-rule="evenodd" d="M32.4818 38.6463C25.8978 36.7247 21.8762 40.2195 21.8995 40.2126C24.113 39.495 30.1088 38.7877 32.4818 38.6463Z" fill="#B7926A"/>
<path fill-rule="evenodd" clip-rule="evenodd" d="M32.4818 38.6463C25.8978 36.7247 21.8762 40.2195 21.8995 40.2126C24.113 39.495 30.1088 38.7877 32.4818 38.6463Z" fill="url(#paint3_linear_5244_22132)"/>
<path fill-rule="evenodd" clip-rule="evenodd" d="M31.3419 38.8535C26.7155 41.0615 21.9262 40.268 21.9395 40.2645C23.8107 39.8988 28.58 39.026 31.3419 38.8535Z" fill="#B7926A"/>
<path fill-rule="evenodd" clip-rule="evenodd" d="M31.3419 38.8535C26.7155 41.0615 21.9262 40.268 21.9395 40.2645C23.8107 39.8988 28.58 39.026 31.3419 38.8535Z" fill="url(#paint4_linear_5244_22132)"/>
<path fill-rule="evenodd" clip-rule="evenodd" d="M24.0728 29.9317C23.5111 25.2605 22.6337 23.0077 20.1543 19.0852L22.2415 18.9817L22.1152 16.9566L24.1592 17.0808L24.2157 15.2144L25.7479 15.5145L26.4525 14C27.0906 15.0177 27.7287 16.0355 28.3669 17.0497L29.3074 18.5815L28.0478 18.3296L27.6656 20.3444L25.9872 18.892L26.1733 22.5247C26.4625 26.261 25.7645 27.3615 24.0728 29.9317Z" fill="#B7926A"/>
<path fill-rule="evenodd" clip-rule="evenodd" d="M24.0728 29.9317C23.5111 25.2605 22.6337 23.0077 20.1543 19.0852L22.2415 18.9817L22.1152 16.9566L24.1592 17.0808L24.2157 15.2144L25.7479 15.5145L26.4525 14C27.0906 15.0177 27.7287 16.0355 28.3669 17.0497L29.3074 18.5815L28.0478 18.3296L27.6656 20.3444L25.9872 18.892L26.1733 22.5247C26.4625 26.261 25.7645 27.3615 24.0728 29.9317Z" fill="url(#paint5_linear_5244_22132)"/>
<path fill-rule="evenodd" clip-rule="evenodd" d="M25.3789 29.7868L26.592 30.8045C27.7187 27.603 28.4466 26.675 31.7236 25.8642C31.8665 23.9357 32.4847 22.5592 33.3555 20.8756L31.3514 14.5312L30.8628 17.4602L30.1383 17.0014L29.8591 19.3749L28.9717 19.23L28.5529 21.2655L27.4096 20.9998C27.3265 23.8978 26.7781 27.2442 25.3789 29.7868Z" fill="#B7926A"/>
<path fill-rule="evenodd" clip-rule="evenodd" d="M25.3789 29.7868L26.592 30.8045C27.7187 27.603 28.4466 26.675 31.7236 25.8642C31.8665 23.9357 32.4847 22.5592 33.3555 20.8756L31.3514 14.5312L30.8628 17.4602L30.1383 17.0014L29.8591 19.3749L28.9717 19.23L28.5529 21.2655L27.4096 20.9998C27.3265 23.8978 26.7781 27.2442 25.3789 29.7868Z" fill="url(#paint6_linear_5244_22132)"/>
<path fill-rule="evenodd" clip-rule="evenodd" d="M27.6191 32.8884C27.895 26.1369 32.3154 27.1133 37.3938 27.8757L36.862 29.1798L38.7698 29.1591L37.9987 30.0319L39.6771 30.6874L34.4757 31.8707L28.7359 32.6952L27.6191 32.8884Z" fill="#B7926A"/>
<path fill-rule="evenodd" clip-rule="evenodd" d="M27.6191 32.8884C27.895 26.1369 32.3154 27.1133 37.3938 27.8757L36.862 29.1798L38.7698 29.1591L37.9987 30.0319L39.6771 30.6874L34.4757 31.8707L28.7359 32.6952L27.6191 32.8884Z" fill="url(#paint7_linear_5244_22132)"/>
<path fill-rule="evenodd" clip-rule="evenodd" d="M32.6807 25.9122C32.7405 23.5318 33.4318 22.6555 34.5219 20.8995L34.3358 19.8335L34.944 19.7852L35.9212 20.7649L35.8912 22.0345L36.5526 22.8866L35.1235 24.2804L34.3823 25.964L32.6807 25.9122Z" fill="#B7926A"/>
<path fill-rule="evenodd" clip-rule="evenodd" d="M32.6807 25.9122C32.7405 23.5318 33.4318 22.6555 34.5219 20.8995L34.3358 19.8335L34.944 19.7852L35.9212 20.7649L35.8912 22.0345L36.5526 22.8866L35.1235 24.2804L34.3823 25.964L32.6807 25.9122Z" fill="url(#paint8_linear_5244_22132)"/>
<path fill-rule="evenodd" clip-rule="evenodd" d="M33.2861 16.3978L38.3247 15.042L37.8394 16.9981L39.6774 17.8502L38.8598 19.7994L40.0795 20.793L39.3018 22.1385L41.0002 23.3011L39.8303 24.857L40.6213 26.5164L39.4181 27.1271L39.8203 28.6002L35.1075 26.375L35.4332 24.7259L37.7198 23.1769L36.9487 21.8211L36.8324 20.3687L36.0414 18.8197L33.8478 19.3026L33.2861 16.3978Z" fill="#B7926A"/>
<path fill-rule="evenodd" clip-rule="evenodd" d="M33.2861 16.3978L38.3247 15.042L37.8394 16.9981L39.6774 17.8502L38.8598 19.7994L40.0795 20.793L39.3018 22.1385L41.0002 23.3011L39.8303 24.857L40.6213 26.5164L39.4181 27.1271L39.8203 28.6002L35.1075 26.375L35.4332 24.7259L37.7198 23.1769L36.9487 21.8211L36.8324 20.3687L36.0414 18.8197L33.8478 19.3026L33.2861 16.3978Z" fill="url(#paint9_linear_5244_22132)"/>
</g>
<ellipse cx="29" cy="68.5" rx="28" ry="1.5" fill="#AE8646"/>
<defs>
<linearGradient id="paint0_linear_5244_22132" x1="19.9385" y1="33.853" x2="26.6567" y2="33.9384" gradientUnits="userSpaceOnUse">
<stop stop-color="#B7926A"/>
<stop offset="1" stop-color="white" stop-opacity="0"/>
</linearGradient>
<linearGradient id="paint1_linear_5244_22132" x1="16" y1="29.4994" x2="21.5633" y2="29.5763" gradientUnits="userSpaceOnUse">
<stop stop-color="#B7926A"/>
<stop offset="1" stop-color="white" stop-opacity="0"/>
</linearGradient>
<linearGradient id="paint2_linear_5244_22132" x1="16.8506" y1="30.588" x2="21.5549" y2="30.6527" gradientUnits="userSpaceOnUse">
<stop stop-color="#B7926A"/>
<stop offset="1" stop-color="white" stop-opacity="0"/>
</linearGradient>
<linearGradient id="paint3_linear_5244_22132" x1="21.8994" y1="38.6409" x2="32.4245" y2="39.8787" gradientUnits="userSpaceOnUse">
<stop stop-color="#B7926A"/>
<stop offset="1" stop-color="white" stop-opacity="0"/>
</linearGradient>
<linearGradient id="paint4_linear_5244_22132" x1="21.9395" y1="39.2675" x2="31.227" y2="40.6072" gradientUnits="userSpaceOnUse">
<stop stop-color="#B7926A"/>
<stop offset="1" stop-color="white" stop-opacity="0"/>
</linearGradient>
<linearGradient id="paint5_linear_5244_22132" x1="20.1543" y1="18.2485" x2="29.382" y2="18.3747" gradientUnits="userSpaceOnUse">
<stop stop-color="#B7926A"/>
<stop offset="1" stop-color="white" stop-opacity="0"/>
</linearGradient>
<linearGradient id="paint6_linear_5244_22132" x1="25.3789" y1="18.8708" x2="33.4209" y2="18.9647" gradientUnits="userSpaceOnUse">
<stop stop-color="#B7926A"/>
<stop offset="1" stop-color="white" stop-opacity="0"/>
</linearGradient>
<linearGradient id="paint7_linear_5244_22132" x1="27.6191" y1="28.8166" x2="39.7452" y2="29.4438" gradientUnits="userSpaceOnUse">
<stop stop-color="#B7926A"/>
<stop offset="1" stop-color="white" stop-opacity="0"/>
</linearGradient>
<linearGradient id="paint8_linear_5244_22132" x1="32.6807" y1="21.4328" x2="36.5841" y2="21.4911" gradientUnits="userSpaceOnUse">
<stop stop-color="#B7926A"/>
<stop offset="1" stop-color="white" stop-opacity="0"/>
</linearGradient>
<linearGradient id="paint9_linear_5244_22132" x1="33.2861" y1="18.6575" x2="41.0631" y2="18.7629" gradientUnits="userSpaceOnUse">
<stop stop-color="#B7926A"/>
<stop offset="1" stop-color="white" stop-opacity="0"/>
</linearGradient>
<clipPath id="clip0_5244_22132">
<rect width="25" height="29" fill="white" transform="translate(16 14)"/>
</clipPath>
</defs>
</svg>
